<svg width="72" height="60" viewBox="0 0 72 60" fill="none" xmlns="http://www.w3.org/2000/svg">
<g clip-path="url(#clip0_5793_20413)">
<path d="M64.4625 39.6574V32.2343H60.7005V39.6574H64.4625Z" fill="url(#paint0_linear_5793_20413)"/>
<path d="M47.8034 55.8584V53.338H44.2223V55.8584H44.225V56.401H22.6767C22.5655 56.405 22.4529 56.4158 22.3416 56.4171C21.1676 56.4278 21.8484 56.405 20.3943 56.401C20.3434 56.4064 20.2924 56.4117 20.2428 56.4144V53.7065H20.2804C20.3179 53.7091 20.3554 53.7118 20.3929 53.7158C20.9398 53.7158 21.185 53.7105 21.3405 53.7065H22.4918C22.5521 53.7105 22.6137 53.7132 22.6767 53.7158H36.1822V50.1182H23.9741C23.7207 50.1235 23.4634 50.1208 23.1806 50.1182C23.1404 50.1182 23.1002 50.1182 23.0587 50.1182C22.9287 50.1182 22.7933 50.1182 22.6486 50.1182H20.1678C19.1103 50.1182 18.1601 50.5724 17.5034 51.2973C17.4994 51.3013 17.498 51.304 17.4954 51.308C17.1549 51.6845 16.8936 52.1334 16.7368 52.6305C16.6859 52.8543 16.6591 53.0861 16.6591 53.3259V56.7909C16.6591 57.0308 16.6859 57.2626 16.7368 57.4863C16.8923 57.9821 17.1549 58.4323 17.4954 58.8088C17.498 58.8129 17.5007 58.8155 17.5034 58.8196C18.1601 59.5445 19.1103 59.9987 20.1678 59.9987H22.6486C22.8375 59.9987 23.0131 59.9987 23.1793 59.9987C23.4621 59.996 23.7181 59.9933 23.9727 59.9987H44.2973C45.3427 59.9987 46.2836 59.5552 46.9376 58.8437C47.2941 58.4605 47.5662 57.9982 47.7283 57.4863C47.7337 57.4582 47.7404 57.4301 47.7458 57.4019C47.7511 57.3738 47.7565 57.3457 47.7618 57.3175C47.7672 57.2894 47.7712 57.2599 47.7753 57.2304C47.7753 57.2304 47.7753 57.2277 47.7753 57.2264C47.7806 57.1902 47.786 57.154 47.79 57.1165C47.7954 57.0629 47.7994 57.008 47.8021 56.9531C47.8061 56.8995 47.8074 56.8432 47.8074 56.7883V55.857H47.8047L47.8034 55.8584Z" fill="url(#paint1_linear_5793_20413)"/>
<path d="M47.7847 52.9548C47.7807 52.9333 47.7793 52.9105 47.7766 52.8904C47.7766 52.8904 47.7766 52.8878 47.7766 52.8864C47.7726 52.8583 47.7686 52.8275 47.7632 52.7993C47.7579 52.7712 47.7539 52.7431 47.7472 52.7149C47.7418 52.6868 47.7351 52.6586 47.7297 52.6305C47.6359 52.333 47.5032 52.053 47.3411 51.7944C47.1052 51.3844 46.7594 50.9677 46.2541 50.693C46.2541 50.693 46.2541 50.693 46.2515 50.693C46.2515 50.693 46.2474 50.6903 46.2461 50.689C46.2327 50.6809 46.2005 50.6608 46.155 50.6313C45.7489 50.3875 45.2918 50.2213 44.8013 50.153C44.7303 50.1396 44.6566 50.1262 44.5788 50.1155H23.9741C23.7208 50.1222 23.4635 50.1195 23.1807 50.1155C23.1405 50.1155 23.1003 50.1155 23.0587 50.1155V53.7131H44.0722C44.0722 53.7131 44.1272 53.7078 44.2223 53.7064C44.5346 53.6971 45.2744 53.7024 45.8588 53.945C45.8588 53.945 46.8412 54.2451 47.6225 55.1629C47.6855 55.2473 47.778 55.376 47.8021 55.4028L47.8061 55.4068V53.0713C47.8061 53.0713 47.7994 53.0285 47.7833 52.9534L47.7847 52.9548Z" fill="white"/>
<path d="M27.8219 43.2189H24.0425V50.1181H27.8219V43.2189Z" fill="url(#paint2_linear_5793_20413)"/>
<path d="M40.4255 43.2189H36.646V50.1181H40.4255V43.2189Z" fill="url(#paint3_linear_5793_20413)"/>
<path d="M26.6398 30.2043L35.1127 13.245H38.8654L30.6471 30.2029L26.6398 30.2043Z" fill="white"/>
<path d="M25.6011 26.0627V30.2043L22.5507 28.9435L15.93 26.2087L15.875 26.1819C15.8576 26.1685 15.8067 26.1082 15.7651 26.0573L15.8804 25.7773L16.391 24.5432L17.1978 22.5909L18.2553 23.0278L25.5998 26.0627H25.6011Z" fill="url(#paint4_linear_5793_20413)"/>
<path d="M25.5556 15.2885L17.9055 19.067L16.1364 19.9406C16.115 19.9554 16.0949 19.9688 16.0761 19.9835C14.9114 20.553 14.11 21.7482 14.11 23.131C14.11 24.4226 14.8096 25.5509 15.8509 26.1552L15.8536 26.1578C15.863 26.1672 15.8711 26.1753 15.8791 26.182C15.8791 26.1793 15.8791 26.1766 15.8791 26.1726C15.8871 26.1109 15.8965 26.0319 15.9059 25.9716C15.9126 25.9367 15.9206 25.9033 15.926 25.8698C16.0439 25.3499 16.245 24.9318 16.4259 24.6303C16.6417 24.2766 16.8333 24.085 16.8333 24.085C17.3332 23.4686 18.2419 23.1176 18.2419 23.1176L18.2795 23.1001L20.8594 21.8259L25.5931 19.4851L25.5569 15.2885H25.5556Z" fill="white"/>
<path d="M38.8655 26.0627V30.2043L41.9158 28.9435L48.5366 26.2087L48.5915 26.1819C48.609 26.1685 48.6599 26.1082 48.7015 26.0573L48.5862 25.7773L48.0756 24.5432L47.2687 22.5909L46.2113 23.0278L38.8668 26.0627H38.8655Z" fill="url(#paint5_linear_5793_20413)"/>
<path d="M38.9123 15.2885L46.5623 19.067L48.3314 19.9406C48.3529 19.9554 48.373 19.9688 48.3918 19.9835C49.5564 20.553 50.3579 21.7482 50.3579 23.131C50.3579 24.4226 49.6583 25.5509 48.6169 26.1552L48.6142 26.1578C48.6048 26.1672 48.5968 26.1753 48.5888 26.182C48.5888 26.1793 48.5888 26.1766 48.5888 26.1726C48.5807 26.1109 48.5713 26.0319 48.562 25.9716C48.5553 25.9367 48.5472 25.9033 48.5419 25.8698C48.4239 25.3499 48.2229 24.9318 48.0419 24.6303C47.8262 24.2766 47.6345 24.085 47.6345 24.085C47.1346 23.4686 46.2259 23.1176 46.2259 23.1176L46.1884 23.1001L43.6085 21.8259L38.8748 19.4851L38.9109 15.2885H38.9123Z" fill="white"/>
<path d="M64.2695 38.091C63.4493 39.0544 62.4173 39.3693 62.4173 39.3693C61.6159 39.7002 60.5396 39.6132 60.5396 39.6132H21.6072V39.6105H3.3988V43.393H61.0704C61.1508 43.3823 61.2285 43.3676 61.3036 43.3542C61.8169 43.2832 62.298 43.1076 62.7242 42.8504C62.7738 42.8222 62.8087 42.8008 62.8221 42.7914C62.8221 42.7914 62.8261 42.7887 62.8288 42.7874V42.7847C63.3595 42.498 63.7227 42.0598 63.9706 41.6297C64.1422 41.3591 64.2802 41.0643 64.3794 40.7521C64.3861 40.7226 64.3915 40.6931 64.3982 40.6636C64.4049 40.6342 64.4089 40.6047 64.4143 40.5752C64.4196 40.5457 64.4236 40.5136 64.4277 40.4841C64.4277 40.4841 64.4277 40.4814 64.4277 40.4801C64.4317 40.4573 64.4344 40.4345 64.437 40.4131C64.4545 40.334 64.4612 40.2898 64.4612 40.2898V37.8364C64.4478 37.8498 64.3392 37.9959 64.2682 38.091H64.2695Z" fill="url(#paint6_linear_5793_20413)"/>
<path d="M5.30732 43.2002C4.34236 42.3801 4.02874 41.3484 4.02874 41.3484C3.6977 40.5471 3.78482 39.4712 3.78482 39.4712V7.51825H3.77812V3.71692H0V8.56473H0.00268047V14.8918V37.8097V40.0018C0.0134023 40.0835 0.0281449 40.1599 0.0415472 40.2349C0.11392 40.7481 0.28815 41.2305 0.545475 41.6552C0.57362 41.7048 0.595064 41.7383 0.604445 41.7531C0.604445 41.7557 0.608466 41.7571 0.609806 41.7598V41.7624C0.897956 42.293 1.33621 42.6548 1.76777 42.9027C2.03849 43.0742 2.33201 43.2122 2.64428 43.3114C2.67376 43.3181 2.70325 43.3234 2.73274 43.3301C2.76222 43.3368 2.79171 43.3408 2.82119 43.3462C2.85068 43.3516 2.88284 43.3556 2.91233 43.3596C2.91233 43.3596 2.91501 43.3596 2.91635 43.3596C2.93913 43.3636 2.96192 43.3663 2.98336 43.369C3.06243 43.3864 3.10666 43.3931 3.10666 43.3931H5.56063C5.54857 43.3797 5.40114 43.2712 5.30732 43.2002V43.2002Z" fill="url(#paint7_linear_5793_20413)"/>
<path d="M0.195679 5.30204C1.0159 4.33864 2.04788 4.02376 2.04788 4.02376C2.84934 3.6928 3.92555 3.7799 3.92555 3.7799H42.8566V3.78258H61.065V0H3.39348C3.31306 0.0107193 3.23533 0.0254584 3.16027 0.0388575C2.64697 0.109873 2.16582 0.285402 1.73963 0.542665C1.69004 0.570803 1.65519 0.592242 1.64179 0.601621C1.64179 0.601621 1.63777 0.604301 1.63509 0.605641V0.608321C1.10436 0.895062 0.741154 1.33321 0.493211 1.76333C0.321661 2.03399 0.183617 2.32877 0.0844398 2.64097C0.0777386 2.67045 0.0723777 2.69993 0.0656765 2.7294C0.0589753 2.75888 0.0549546 2.78836 0.0495937 2.81784C0.0442328 2.84732 0.0402121 2.87947 0.0361914 2.90895C0.0361914 2.90895 0.0361914 2.91163 0.0361914 2.91297C0.0321707 2.93575 0.0294902 2.95853 0.0268097 2.97997C0.00938671 3.05902 0.00268555 3.10324 0.00268555 3.10324V5.55662C0.0160879 5.54322 0.124647 5.39717 0.195679 5.30204V5.30204Z" fill="url(#paint8_linear_5793_20413)"/>
<path d="M64.4652 3.76383V3.39535C64.4545 3.31362 64.4397 3.23724 64.4263 3.16221C64.3539 2.64902 64.1797 2.16665 63.9224 1.7419C63.8942 1.69232 63.8728 1.65748 63.8634 1.64408C63.8634 1.6414 63.8594 1.64006 63.8581 1.63738V1.6347C63.5699 1.1041 63.1316 0.742321 62.7001 0.494437C62.4294 0.322928 62.1359 0.184917 61.8236 0.0857631C61.7941 0.0790635 61.7646 0.0737038 61.7351 0.0670043C61.7056 0.0603047 61.6762 0.056285 61.6467 0.0509253C61.6172 0.0455656 61.585 0.0415459 61.5555 0.0375262C61.5555 0.0375262 61.5528 0.0375262 61.5515 0.0375262C61.5287 0.0335064 61.5059 0.0308266 61.4845 0.0281468C61.4054 0.0107279 61.3612 0.00402832 61.3612 0.00402832H58.9072C58.9193 0.0174275 59.0667 0.12596 59.1605 0.196976C60.1255 1.017 60.4391 2.04874 60.4391 2.04874C60.6924 2.66242 60.7005 3.43421 60.6911 3.76383H60.6844V7.47003V11.2901L62.5741 9.51742L64.4665 11.2928V3.76383H64.4652Z" fill="white"/>
<path d="M60.6938 17.1214V30.4294H64.472V17.1214H60.6938Z" fill="url(#paint9_linear_5793_20413)"/>
<path d="M62.5755 12.9905L53.1617 22.402L55.8342 25.0725L62.5809 18.326L69.329 25.0725L72.0001 22.402L62.5876 12.9905L62.5809 12.9972L62.5755 12.9905Z" fill="#3C91FF"/>
</g>
<defs>
<linearGradient id="paint0_linear_5793_20413" x1="62.4964" y1="40.0982" x2="63.0014" y2="15.3178" gradientUnits="userSpaceOnUse">
<stop offset="0.02" stop-color="white" stop-opacity="0.6"/>
<stop offset="0.38" stop-color="white"/>
</linearGradient>
<linearGradient id="paint1_linear_5793_20413" x1="36.2787" y1="61.151" x2="22.0526" y2="41.3131" gradientUnits="userSpaceOnUse">
<stop offset="0.02" stop-color="white" stop-opacity="0.6"/>
<stop offset="0.38" stop-color="white"/>
</linearGradient>
<linearGradient id="paint2_linear_5793_20413" x1="25.9764" y1="53.0257" x2="25.8773" y2="38.8668" gradientUnits="userSpaceOnUse">
<stop offset="0.02" stop-color="white" stop-opacity="0.6"/>
<stop offset="0.38" stop-color="white"/>
</linearGradient>
<linearGradient id="paint3_linear_5793_20413" x1="38.58" y1="53.0257" x2="38.4808" y2="38.8668" gradientUnits="userSpaceOnUse">
<stop offset="0.02" stop-color="white" stop-opacity="0.6"/>
<stop offset="0.38" stop-color="white"/>
</linearGradient>
<linearGradient id="paint4_linear_5793_20413" x1="16.1685" y1="24.2498" x2="27.6013" y2="28.9467" gradientUnits="userSpaceOnUse">
<stop stop-color="white" stop-opacity="0.6"/>
<stop offset="0.42" stop-color="white"/>
</linearGradient>
<linearGradient id="paint5_linear_5793_20413" x1="48.298" y1="24.2498" x2="36.8666" y2="28.9467" gradientUnits="userSpaceOnUse">
<stop offset="0.02" stop-color="white" stop-opacity="0.6"/>
<stop offset="0.42" stop-color="white"/>
</linearGradient>
<linearGradient id="paint6_linear_5793_20413" x1="3.3988" y1="40.6141" x2="64.4625" y2="40.6141" gradientUnits="userSpaceOnUse">
<stop stop-color="white" stop-opacity="0.6"/>
<stop offset="0.38" stop-color="white"/>
</linearGradient>
<linearGradient id="paint7_linear_5793_20413" x1="2.56253" y1="2.57397" x2="2.82911" y2="50.1007" gradientUnits="userSpaceOnUse">
<stop offset="0.02" stop-color="white" stop-opacity="0.6"/>
<stop offset="0.38" stop-color="white"/>
</linearGradient>
<linearGradient id="paint8_linear_5793_20413" x1="61.0664" y1="2.77764" x2="0.00268555" y2="2.77764" gradientUnits="userSpaceOnUse">
<stop offset="0.02" stop-color="white" stop-opacity="0.6"/>
<stop offset="0.38" stop-color="white"/>
</linearGradient>
<linearGradient id="paint9_linear_5793_20413" x1="62.5822" y1="30.4294" x2="62.5822" y2="17.1214" gradientUnits="userSpaceOnUse">
<stop stop-color="#3C91FF"/>
<stop offset="0.26" stop-color="#368BFA"/>
<stop offset="0.6" stop-color="#287AEF"/>
<stop offset="0.99" stop-color="#0F5FDC"/>
<stop offset="1" stop-color="#0F5FDC"/>
</linearGradient>
<clipPath id="clip0_5793_20413">
<rect width="72" height="60" fill="white"/>
</clipPath>
</defs>
</svg>
